<svg width="100" height="100" viewBox="0 0 100 100" fill="none" xmlns="http://www.w3.org/2000/svg">
  <defs>
    <radialGradient id="bg" cx="40%" cy="40%" r="65%">
      <stop offset="0%" stop-color="#1a3f9c"/>
      <stop offset="100%" stop-color="#0a1a6b"/>
    </radialGradient>
    <linearGradient id="cg" x1="0%" y1="0%" x2="100%" y2="0%">
      <stop offset="0%" stop-color="#38BDF8" stop-opacity="0.9"/>
      <stop offset="100%" stop-color="#7DD3FC" stop-opacity="0.7"/>
    </linearGradient>
    <clipPath id="clip">
      <path d="M 44 80 L 44 70 C 37 65 26 57 24 47 C 20 36 24 20 34 14 C 41 9 52 7 60 10 C 69 13 76 22 76 33 C 77 42 71 49 69 53 L 73 56 L 69 59 C 66 64 63 68 60 72 C 57 76 53 79 51 80 L 44 80 Z"/>
    </clipPath>
  </defs>

  <circle cx="50" cy="50" r="50" fill="url(#bg)"/>
  <circle cx="40" cy="38" r="30" fill="white" fill-opacity="0.03"/>
  <path d="M 44 80 L 44 70 C 37 65 26 57 24 47 C 20 36 24 20 34 14 C 41 9 52 7 60 10 C 69 13 76 22 76 33 C 77 42 71 49 69 53 L 73 56 L 69 59 C 66 64 63 68 60 72 C 57 76 53 79 51 80 L 44 80 Z" fill="white" fill-opacity="0.95"/>

  <g clip-path="url(#clip)">
    <line x1="46" y1="22" x2="76" y2="22" stroke="url(#cg)" stroke-width="2.2" stroke-linecap="round"/>
    <circle cx="46" cy="22" r="2.8" fill="#38BDF8"/>
    <circle cx="56" cy="22" r="2" fill="#38BDF8"/>
    <circle cx="66" cy="22" r="2" fill="#38BDF8"/>
    <circle cx="75" cy="22" r="2.8" fill="#38BDF8"/>

    <line x1="38" y1="32" x2="76" y2="32" stroke="url(#cg)" stroke-width="2" stroke-linecap="round"/>
    <circle cx="38" cy="32" r="2.5" fill="#7DD3FC"/>
    <circle cx="50" cy="32" r="1.8" fill="#7DD3FC"/>
    <circle cx="62" cy="32" r="1.8" fill="#7DD3FC"/>
    <circle cx="74" cy="32" r="2.5" fill="#7DD3FC"/>

    <line x1="35" y1="42" x2="70" y2="42" stroke="url(#cg)" stroke-width="1.8" stroke-linecap="round"/>
    <circle cx="35" cy="42" r="1.8" fill="#38BDF8"/>
    <circle cx="47" cy="42" r="1.8" fill="#38BDF8"/>
    <circle cx="58" cy="42" r="1.8" fill="#38BDF8"/>
    <circle cx="69" cy="42" r="1.8" fill="#38BDF8"/>

    <line x1="56" y1="22" x2="50" y2="32" stroke="#38BDF8" stroke-width="1.5" stroke-opacity="0.7"/>
    <line x1="62" y1="32" x2="58" y2="42" stroke="#7DD3FC" stroke-width="1.5" stroke-opacity="0.7"/>
  </g>

  <circle cx="17" cy="38" r="2.2" fill="#38BDF8" fill-opacity="0.7"/>
  <circle cx="13" cy="46" r="1.8" fill="#38BDF8" fill-opacity="0.6"/>
  <circle cx="17" cy="54" r="2.2" fill="#38BDF8" fill-opacity="0.65"/>
  <circle cx="10" cy="42" r="1.4" fill="#38BDF8" fill-opacity="0.4"/>
  <circle cx="10" cy="50" r="1.4" fill="#38BDF8" fill-opacity="0.4"/>
  <circle cx="10" cy="58" r="1.4" fill="#38BDF8" fill-opacity="0.35"/>
</svg>
